<?xml version="1.0" encoding="UTF-8"?>
<svg width="171px" height="50px" viewBox="0 0 171 50" version="1.1" xmlns="http://www.w3.org/2000/svg" xmlns:xlink="http://www.w3.org/1999/xlink">
    <!-- Generator: sketchtool 58 (101010) - https://sketch.com -->
    <title>BE6DB641-A89E-4EF9-BABF-53BB96471E72</title>
    <desc>Created with sketchtool.</desc>
    <defs>
        <polygon id="path-1" points="0 49.771729 169.921262 49.771729 169.921262 0 0 0"></polygon>
    </defs>
    <g id="Symbols" stroke="none" stroke-width="1" fill="none" fill-rule="evenodd">
        <g id="sym/logo/distriluz/negativo">
            <g id="sym/logo/distriluz/blanco">
                <g id="Group-16" transform="translate(-0.000000, 0.000000)">
                    <path d="M67.8468224,31.4682009 C70.3257944,31.5219393 75.1514953,31.4394626 75.1514953,25.5415654 C75.1514953,19.6705374 70.3818692,19.4763785 67.9005607,19.5322196 C67.0472897,19.5590888 66.2748598,19.6149299 65.6407477,19.6974065 L65.6407477,31.303014 C66.2748598,31.3567523 67.0185514,31.4394626 67.8468224,31.4682009 L67.8468224,31.4682009 Z M62.333271,17.2990421 C62.9673832,17.2163318 78.5145794,13.7151636 78.5145794,25.5415654 C78.5145794,37.2836215 62.9673832,33.7013785 62.333271,33.6186682 L62.333271,17.2990421 Z" id="Fill-1" fill="#FFFFFF"></path>
                    <mask id="mask-2" fill="white">
                        <use xlink:href="#path-1"></use>
                    </mask>
                    <g id="Clip-4"></g>
                    <path d="M82.388785,33.8934579 L85.5866822,33.8934579 L85.5866822,21.2135514 L82.388785,21.2135514 L82.388785,33.8934579 Z M83.9876168,19.4226636 C82.9404206,19.4226636 82.0313084,18.7595794 82.0313084,17.4913551 C82.0313084,16.2247664 82.9404206,15.5350467 83.9876168,15.5350467 C85.0350467,15.5350467 85.9728972,16.2247664 85.9728972,17.4913551 C85.9728972,18.7595794 85.0350467,19.4226636 83.9876168,19.4226636 L83.9876168,19.4226636 Z" id="Fill-3" fill="#FFFFFF" mask="url(#mask-2)"></path>
                    <path d="M92.9969626,27.9936449 C91.178972,27.3057944 89.3859813,26.4506542 89.3859813,24.4651402 C89.3859813,21.792243 91.9497664,20.9371028 94.6785047,20.8831308 C95.9738318,20.8831308 97.271028,21.0195794 98.3721963,21.2406075 L98.3721963,23.6660748 C97.9859813,23.5831308 97.0212617,23.4179439 96.0025701,23.3354673 C94.3478972,23.1990187 92.4455607,23.2814953 92.4455607,24.4651402 C92.4455607,25.2378037 93.9077103,25.6798598 95.4242991,26.2583645 C97.3535047,27.0020561 99.6962617,28.0223832 99.6962617,30.4747196 C99.6962617,33.5071963 96.3042056,34.1971495 93.7425234,34.1971495 C91.1502336,34.1971495 89.3320093,33.6186449 89.1649533,33.5899065 L89.1649533,31.0550935 C89.1649533,31.0550935 90.7369159,31.4681776 92.6107477,31.6333645 C94.321028,31.798785 96.3331776,31.6892056 96.5810748,30.5574299 C96.8848131,29.235 94.9264019,28.7392056 92.9969626,27.9936449" id="Fill-5" fill="#FFFFFF" mask="url(#mask-2)"></path>
                    <path d="M112.452921,33.866472 C111.62465,34.0318925 110.963435,34.141472 110.246846,34.1683411 C104.844743,34.5008178 104.04521,31.0818925 104.04521,29.0968458 L104.04521,23.7216121 L101.369977,23.7216121 L101.369977,21.2136682 L104.04521,21.2136682 L104.04521,17.9332944 L107.214136,17.9332944 L107.214136,21.2136682 L111.680257,21.2136682 L111.680257,23.7216121 L107.214136,23.7216121 L107.214136,29.290771 C107.214136,30.8610981 107.930958,31.8814252 110.46764,31.7428738 C111.155724,31.7162383 111.845444,31.6045561 112.452921,31.4681075 L112.452921,33.866472 Z" id="Fill-6" fill="#FFFFFF" mask="url(#mask-2)"></path>
                    <path d="M124.408037,23.6659579 C124.24285,23.6122196 123.166682,23.3640888 121.31972,23.3640888 C120.576262,23.3909579 119.638411,23.4736682 118.977196,23.5832477 L118.977196,33.8932944 L115.779299,33.8932944 L115.779299,21.5173598 C115.779299,21.5173598 117.902897,21.2136215 119.006168,21.0753037 C120.245654,20.936986 122.396121,20.6351168 124.408037,21.2404907 L124.408037,23.6659579 Z" id="Fill-7" fill="#FFFFFF" mask="url(#mask-2)"></path>
                    <path d="M127.432944,33.8934579 L130.630841,33.8934579 L130.630841,21.2135514 L127.432944,21.2135514 L127.432944,33.8934579 Z M129.031776,19.4226636 C127.984579,19.4226636 127.075467,18.7595794 127.075467,17.4913551 C127.075467,16.2247664 127.984579,15.5350467 129.031776,15.5350467 C130.079206,15.5350467 131.01729,16.2247664 131.01729,17.4913551 C131.01729,18.7595794 130.079206,19.4226636 129.031776,19.4226636 L129.031776,19.4226636 Z" id="Fill-8" fill="#FFFFFF" mask="url(#mask-2)"></path>
                    <polygon id="Fill-9" fill="#FFFFFF" mask="url(#mask-2)" points="134.760748 33.8934579 137.931542 33.8934579 137.931542 15.9768692 134.760748 15.9768692"></polygon>
                    <path d="M151.353178,21.2135981 L154.495234,21.2135981 L154.495234,33.59 C154.383785,33.6187383 152.619533,33.8935047 151.324439,34.0318224 C148.789393,34.3334579 141.786822,35.2713084 141.786822,27.7745794 L141.786822,21.2135981 L144.984486,21.2135981 L144.984486,27.7458411 C144.984486,31.5507477 147.30014,31.7717757 148.760654,31.7717757 C149.588925,31.7717757 150.553645,31.6334579 151.353178,31.5220093 L151.353178,21.2135981 Z" id="Fill-10" fill="#FFFFFF" mask="url(#mask-2)"></path>
                    <polygon id="Fill-11" fill="#FFFFFF" mask="url(#mask-2)" points="158.344509 32.0196729 165.456893 23.7486449 158.619509 23.7486449 158.619509 21.2135981 169.646379 21.2135981 169.646379 23.1164019 162.589836 31.3568224 169.921379 31.3568224 169.921379 33.8935047 158.344509 33.8935047"></polygon>
                    <path d="M-9.34579439e-05,24.8859813 L22.2459346,0 L9.05714953,0 C4.05481308,0 -9.34579439e-05,4.05514019 -9.34579439e-05,9.05700935 L-9.34579439e-05,24.8859813 Z" id="Fill-12" fill="#FFFFFF" mask="url(#mask-2)"></path>
                    <polygon id="Fill-13" fill="#FFFFFF" mask="url(#mask-2)" points="-9.34579439e-05 49.7716589 22.2459346 24.8859112 -9.34579439e-05 24.8859112"></polygon>
                    <path d="M44.4919159,24.8859813 L22.2458879,49.771729 L35.4349065,49.771729 C40.4370093,49.771729 44.4919159,45.7168224 44.4919159,40.7147196 L44.4919159,24.8859813 Z" id="Fill-14" fill="#FFFFFF" mask="url(#mask-2)"></path>
                    <polygon id="Fill-15" fill="#FFFFFF" mask="url(#mask-2)" points="44.4919159 7.00934579e-05 22.2458879 24.8860514 44.4919159 24.8860514"></polygon>
                </g>
            </g>
        </g>
    </g>
</svg>